<mxfile host="app.diagrams.net" modified="2023-11-24T15:51:04.191Z" agent="Mozilla/5.0 (X11; Ubuntu; Linux x86_64; rv:120.0) Gecko/20100101 Firefox/120.0" etag="po9iQ_QibzXXxblA-bZh" version="22.1.3" type="github">
  <diagram name="Page-1" id="3tIjExJiD3zBu5f5l794">
    <mxGraphModel dx="1114" dy="615" grid="1" gridSize="10" guides="1" tooltips="1" connect="1" arrows="1" fold="1" page="1" pageScale="1" pageWidth="850" pageHeight="1100" background="#ffffff" math="0" shadow="0">
      <root>
        <mxCell id="0" />
        <mxCell id="1" parent="0" />
        <mxCell id="2NlKpTRAE-zCWCaji5mN-1" value="Igrač" style="shape=umlActor;verticalLabelPosition=bottom;verticalAlign=top;html=1;outlineConnect=0;labelBackgroundColor=none;" parent="1" vertex="1">
          <mxGeometry x="90" y="20" width="30" height="60" as="geometry" />
        </mxCell>
        <mxCell id="2NlKpTRAE-zCWCaji5mN-2" value="&lt;div&gt;: Glavni&lt;/div&gt;&lt;div&gt;meni&lt;/div&gt;" style="rounded=0;whiteSpace=wrap;html=1;labelBackgroundColor=none;" parent="1" vertex="1">
          <mxGeometry x="270" y="20" width="120" height="60" as="geometry" />
        </mxCell>
        <mxCell id="2NlKpTRAE-zCWCaji5mN-3" value=": Aplikacija" style="rounded=0;whiteSpace=wrap;html=1;labelBackgroundColor=none;" parent="1" vertex="1">
          <mxGeometry x="460" y="20" width="120" height="60" as="geometry" />
        </mxCell>
        <mxCell id="2NlKpTRAE-zCWCaji5mN-4" value=": Partija" style="rounded=0;whiteSpace=wrap;html=1;labelBackgroundColor=none;" parent="1" vertex="1">
          <mxGeometry x="670" y="20" width="120" height="60" as="geometry" />
        </mxCell>
        <mxCell id="2NlKpTRAE-zCWCaji5mN-5" value="" style="rounded=0;whiteSpace=wrap;html=1;rotation=90;labelBackgroundColor=none;" parent="1" vertex="1">
          <mxGeometry x="-175" y="395" width="560" height="10" as="geometry" />
        </mxCell>
        <mxCell id="2NlKpTRAE-zCWCaji5mN-6" value="" style="rounded=0;whiteSpace=wrap;html=1;rotation=90;labelBackgroundColor=none;" parent="1" vertex="1">
          <mxGeometry x="221.25" y="376.25" width="597.5" height="10" as="geometry" />
        </mxCell>
        <mxCell id="2NlKpTRAE-zCWCaji5mN-7" value="" style="endArrow=none;dashed=1;html=1;rounded=0;entryX=0.4;entryY=1;entryDx=0;entryDy=0;entryPerimeter=0;labelBackgroundColor=none;fontColor=default;" parent="1" target="2NlKpTRAE-zCWCaji5mN-2" edge="1">
          <mxGeometry width="50" height="50" relative="1" as="geometry">
            <mxPoint x="318" y="680" as="sourcePoint" />
            <mxPoint x="320" y="120" as="targetPoint" />
          </mxGeometry>
        </mxCell>
        <mxCell id="2NlKpTRAE-zCWCaji5mN-10" value="" style="endArrow=classic;html=1;rounded=0;entryX=0.118;entryY=1.011;entryDx=0;entryDy=0;entryPerimeter=0;labelBackgroundColor=none;fontColor=default;" parent="1" edge="1">
          <mxGeometry relative="1" as="geometry">
            <mxPoint x="530" y="120" as="sourcePoint" />
            <mxPoint x="726.2474999999998" y="120.00000000000006" as="targetPoint" />
          </mxGeometry>
        </mxCell>
        <mxCell id="2NlKpTRAE-zCWCaji5mN-13" value="&lt;div&gt;&lt;font style=&quot;font-size: 10px;&quot;&gt;1. Aplikacija dohvata vrednosti rezultata&lt;/font&gt;&lt;/div&gt;&lt;div&gt;&lt;font style=&quot;font-size: 10px;&quot;&gt;&lt;br&gt;&lt;/font&gt;&lt;/div&gt;" style="text;html=1;align=center;verticalAlign=middle;resizable=0;points=[];autosize=1;strokeColor=none;fillColor=none;labelBackgroundColor=none;" parent="1" vertex="1">
          <mxGeometry x="520" y="90" width="200" height="40" as="geometry" />
        </mxCell>
        <mxCell id="2NlKpTRAE-zCWCaji5mN-17" value="&lt;font style=&quot;font-size: 11px;&quot;&gt;2. Informacije o vrednosti rezultata&lt;/font&gt;" style="text;html=1;align=center;verticalAlign=middle;resizable=0;points=[];autosize=1;strokeColor=none;fillColor=none;rotation=0;labelBackgroundColor=none;" parent="1" vertex="1">
          <mxGeometry x="530" y="170" width="190" height="30" as="geometry" />
        </mxCell>
        <mxCell id="2NlKpTRAE-zCWCaji5mN-27" value="&lt;font style=&quot;font-size: 11px;&quot;&gt;4. Prikazivanje rezultata&lt;/font&gt;" style="text;html=1;align=center;verticalAlign=middle;resizable=0;points=[];autosize=1;strokeColor=none;fillColor=none;labelBackgroundColor=none;" parent="1" vertex="1">
          <mxGeometry x="240" y="330" width="140" height="30" as="geometry" />
        </mxCell>
        <mxCell id="2NlKpTRAE-zCWCaji5mN-31" value="" style="endArrow=classic;html=1;rounded=0;labelBackgroundColor=none;fontColor=default;" parent="1" edge="1">
          <mxGeometry relative="1" as="geometry">
            <mxPoint x="110" y="440" as="sourcePoint" />
            <mxPoint x="510" y="440" as="targetPoint" />
          </mxGeometry>
        </mxCell>
        <mxCell id="2NlKpTRAE-zCWCaji5mN-32" value="&lt;div&gt;5. Igrač bira dugme nazad na meni&lt;/div&gt;" style="edgeLabel;resizable=0;html=1;align=center;verticalAlign=middle;labelBackgroundColor=none;" parent="2NlKpTRAE-zCWCaji5mN-31" connectable="0" vertex="1">
          <mxGeometry relative="1" as="geometry">
            <mxPoint x="-1" y="-12" as="offset" />
          </mxGeometry>
        </mxCell>
        <mxCell id="2NlKpTRAE-zCWCaji5mN-33" value="" style="rounded=0;whiteSpace=wrap;html=1;rotation=90;labelBackgroundColor=none;" parent="1" vertex="1">
          <mxGeometry x="287.5" y="552.5" width="70" height="10" as="geometry" />
        </mxCell>
        <mxCell id="2NlKpTRAE-zCWCaji5mN-34" value="" style="endArrow=classic;html=1;rounded=0;labelBackgroundColor=none;fontColor=default;" parent="1" edge="1">
          <mxGeometry relative="1" as="geometry">
            <mxPoint x="510" y="520" as="sourcePoint" />
            <mxPoint x="330" y="520" as="targetPoint" />
          </mxGeometry>
        </mxCell>
        <mxCell id="2NlKpTRAE-zCWCaji5mN-35" value="&lt;div&gt;6. Povratak na meni&lt;/div&gt;" style="edgeLabel;resizable=0;html=1;align=center;verticalAlign=middle;labelBackgroundColor=none;" parent="2NlKpTRAE-zCWCaji5mN-34" connectable="0" vertex="1">
          <mxGeometry relative="1" as="geometry">
            <mxPoint y="-10" as="offset" />
          </mxGeometry>
        </mxCell>
        <mxCell id="2NlKpTRAE-zCWCaji5mN-38" value="" style="endArrow=classic;html=1;rounded=0;exitX=1;exitY=1;exitDx=0;exitDy=0;entryX=0.843;entryY=-0.283;entryDx=0;entryDy=0;entryPerimeter=0;labelBackgroundColor=none;fontColor=default;" parent="1" source="2NlKpTRAE-zCWCaji5mN-33" target="2NlKpTRAE-zCWCaji5mN-5" edge="1">
          <mxGeometry relative="1" as="geometry">
            <mxPoint x="170" y="600" as="sourcePoint" />
            <mxPoint x="270" y="600" as="targetPoint" />
          </mxGeometry>
        </mxCell>
        <mxCell id="2NlKpTRAE-zCWCaji5mN-39" value="7. Prikaz glavnog menija" style="edgeLabel;resizable=0;html=1;align=center;verticalAlign=middle;labelBackgroundColor=none;" parent="2NlKpTRAE-zCWCaji5mN-38" connectable="0" vertex="1">
          <mxGeometry relative="1" as="geometry">
            <mxPoint y="-10" as="offset" />
          </mxGeometry>
        </mxCell>
        <mxCell id="2NlKpTRAE-zCWCaji5mN-42" value="" style="endArrow=open;endSize=12;dashed=1;html=1;rounded=0;entryX=0.429;entryY=0;entryDx=0;entryDy=0;entryPerimeter=0;labelBackgroundColor=none;fontColor=default;" parent="1" target="2NlKpTRAE-zCWCaji5mN-5" edge="1">
          <mxGeometry width="160" relative="1" as="geometry">
            <mxPoint x="510" y="360" as="sourcePoint" />
            <mxPoint x="360" y="300" as="targetPoint" />
          </mxGeometry>
        </mxCell>
        <mxCell id="2NlKpTRAE-zCWCaji5mN-44" value="" style="endArrow=open;endSize=12;dashed=1;html=1;rounded=0;labelBackgroundColor=none;fontColor=default;" parent="1" edge="1">
          <mxGeometry width="160" relative="1" as="geometry">
            <mxPoint x="720" y="200" as="sourcePoint" />
            <mxPoint x="530" y="200" as="targetPoint" />
          </mxGeometry>
        </mxCell>
        <mxCell id="2NlKpTRAE-zCWCaji5mN-46" value="" style="endArrow=none;dashed=1;html=1;rounded=0;entryX=0.4;entryY=1;entryDx=0;entryDy=0;entryPerimeter=0;labelBackgroundColor=none;fontColor=default;" parent="1" edge="1">
          <mxGeometry width="50" height="50" relative="1" as="geometry">
            <mxPoint x="729" y="690" as="sourcePoint" />
            <mxPoint x="729" y="80" as="targetPoint" />
          </mxGeometry>
        </mxCell>
        <mxCell id="2NlKpTRAE-zCWCaji5mN-47" value="" style="rounded=0;whiteSpace=wrap;html=1;direction=south;labelBackgroundColor=none;" parent="1" vertex="1">
          <mxGeometry x="726.25" y="120" width="7.5" height="80" as="geometry" />
        </mxCell>
        <mxCell id="2NlKpTRAE-zCWCaji5mN-49" value="" style="curved=1;endArrow=classic;html=1;rounded=0;labelBackgroundColor=none;fontColor=default;" parent="1" edge="1">
          <mxGeometry width="50" height="50" relative="1" as="geometry">
            <mxPoint x="530" y="260" as="sourcePoint" />
            <mxPoint x="530" y="290" as="targetPoint" />
            <Array as="points">
              <mxPoint x="580" y="260" />
              <mxPoint x="570" y="290" />
            </Array>
          </mxGeometry>
        </mxCell>
        <mxCell id="2NlKpTRAE-zCWCaji5mN-50" value="&lt;div&gt;3.Aplikacija dodeljuje&amp;nbsp;&lt;/div&gt;&lt;div&gt;poene igraču&lt;/div&gt;" style="text;html=1;align=center;verticalAlign=middle;resizable=0;points=[];autosize=1;strokeColor=none;fillColor=none;labelBackgroundColor=none;" parent="1" vertex="1">
          <mxGeometry x="570" y="260" width="140" height="40" as="geometry" />
        </mxCell>
      </root>
    </mxGraphModel>
  </diagram>
</mxfile>
